# Blender 4.5.3 LTS
# www.blender.org
mtllib PlaneCrack.mtl
o Plane
v -1.000000 0.000000 0.001026
v 1.000000 0.000000 0.001026
v -0.645315 0.000721 0.298390
v -0.318819 -0.001838 0.131669
v -0.013709 0.001825 0.307811
v 0.333333 0.000000 0.086480
v 0.666667 0.000000 0.349830
v 0.666667 0.000000 -0.077945
v 0.333333 0.000000 -0.341294
v -0.013709 0.001825 -0.119964
v -0.318819 -0.001838 -0.296105
v -0.645315 0.000721 -0.129384
v -1.000000 -0.524409 0.001026
v 1.000000 -0.524409 0.001026
v -0.645315 -0.523688 0.084503
v -0.318819 -0.526248 -0.082218
v -0.013709 -0.522584 0.093924
v 0.333333 -0.524409 -0.127407
v 0.666667 -0.524409 0.135942
vn 0.0819 0.1991 0.9765
vn 0.0643 0.1994 0.9778
vn 0.4296 0.3410 0.8361
vn -0.4745 0.3324 0.8151
vn 0.5098 0.3249 0.7966
vn -0.5904 0.3048 0.7473
vn 0.5904 0.3048 -0.7473
vn -0.5072 0.3255 -0.7980
vn 0.4683 0.3337 -0.8181
vn -0.4253 0.3418 -0.8380
vn 0.4653 0.1769 -0.8673
vn -0.5794 0.1629 -0.7986
vt 0.833333 0.500000
vt 1.000000 0.500000
vt 1.000000 1.000000
vt 0.833333 1.000000
vt 0.000000 0.500000
vt 0.166667 0.500000
vt 0.166667 1.000000
vt 0.000000 1.000000
vt 0.333333 0.500000
vt 0.333333 1.000000
vt 0.500000 0.500000
vt 0.500000 1.000000
vt 0.666667 0.500000
vt 0.666667 1.000000
vt 0.666667 0.000000
vt 0.833333 0.000000
vt 0.500000 0.000000
vt 0.333333 0.000000
vt 0.166667 0.000000
vt 0.000000 0.000000
vt 1.000000 0.000000
s 0
f 19/1/1 14/2/1 2/3/1 8/4/1
f 13/5/2 15/6/2 12/7/2 1/8/2
f 15/6/3 16/9/3 11/10/3 12/7/3
f 16/9/4 17/11/4 10/12/4 11/10/4
f 17/11/5 18/13/5 9/14/5 10/12/5
f 18/13/6 19/1/6 8/4/6 9/14/6
f 6/15/7 7/16/7 19/1/7 18/13/7
f 5/17/8 6/15/8 18/13/8 17/11/8
f 4/18/9 5/17/9 17/11/9 16/9/9
f 3/19/10 4/18/10 16/9/10 15/6/10
f 1/20/11 3/19/11 15/6/11 13/5/11
f 7/16/12 2/21/12 14/2/12 19/1/12
